<?xml version="1.0" encoding="UTF-8"?>
<svg version="1.1" xmlns="http://www.w3.org/2000/svg" width="512" height="512">
<path d="M0 0 C2.67718396 2.04105953 3.84619447 3.2386418 4.51898193 6.56903076 C4.52786438 7.53721741 4.53674683 8.50540405 4.54589844 9.50292969 C4.56561707 10.60376892 4.58533569 11.70460815 4.60565186 12.83880615 C4.60749481 14.61242523 4.60749481 14.61242523 4.609375 16.421875 C4.62591125 17.63699768 4.64244751 18.85212036 4.65948486 20.10406494 C4.70807963 23.98609413 4.7293624 27.86773123 4.75 31.75 C4.7781499 34.38153026 4.80807593 37.01304217 4.83984375 39.64453125 C4.91384196 46.09628272 4.96541722 52.5479234 5 59 C8.70520345 57.4264618 12.40898132 55.84961566 16.1114502 54.26965332 C17.4094385 53.71604097 18.70769614 53.16305966 20.00622559 52.61071777 C28.44005014 49.02121334 36.77691238 45.3222867 44.921875 41.109375 C48.92610247 39.66622703 51.75474168 39.67818914 56 40 C58.96858157 42.20740681 59.82865791 43.48597373 61 47 C61.08840088 48.85594728 61.11762704 50.71495117 61.11352539 52.57299805 C61.11344986 53.71395432 61.11337433 54.85491058 61.11329651 56.03044128 C61.10813522 57.26176285 61.10297394 58.49308441 61.09765625 59.76171875 C61.09553383 61.65311333 61.09553383 61.65311333 61.09336853 63.5827179 C61.08871575 66.93151709 61.07973342 70.28024811 61.06866455 73.62902832 C61.05842687 77.04760143 61.05386586 80.46618159 61.04882812 83.88476562 C61.03779099 90.58986261 61.02104686 97.29492737 61 104 C61.93682617 103.9685791 61.93682617 103.9685791 62.89257812 103.93652344 C65.7615506 103.85264156 68.63026408 103.80111489 71.5 103.75 C72.48226563 103.71648437 73.46453125 103.68296875 74.4765625 103.6484375 C82.09140832 103.54690622 87.46079733 104.89857327 93.2421875 109.96484375 C94.05042969 110.94130859 94.05042969 110.94130859 94.875 111.9375 C95.42929687 112.58589844 95.98359375 113.23429687 96.5546875 113.90234375 C100.04077632 118.96188346 100.29030681 123.66813882 100.26742554 129.67170715 C100.27195665 130.54421496 100.27648776 131.41672276 100.28115618 132.31567019 C100.29381501 135.23890235 100.29217885 138.16194855 100.29052734 141.08520508 C100.29651168 143.18131246 100.303317 145.27741763 100.31088257 147.3735199 C100.32855976 153.06780601 100.33323869 158.76203203 100.33451414 164.45634294 C100.33641316 169.21027915 100.34377076 173.96420137 100.35085833 178.7181322 C100.36714654 189.93489808 100.3720269 201.15163185 100.37060547 212.3684082 C100.36940401 223.93764557 100.39050578 235.50669639 100.4220928 247.07588655 C100.4482482 257.00979706 100.45897306 266.94364663 100.45769465 276.87759131 C100.45718479 282.81014702 100.46288149 288.74253697 100.48405075 294.67505836 C100.50342049 300.25570863 100.50356604 305.83603482 100.48901749 311.41669655 C100.48692671 313.46290561 100.49164622 315.50913489 100.5037384 317.5553093 C100.51919881 320.35303349 100.50987738 323.14964137 100.49447632 325.94734192 C100.50476344 326.75329152 100.51505057 327.55924113 100.52564943 328.38961345 C100.44492773 335.04467965 98.43760241 340.2183225 94.03515625 345.2421875 C93.38417969 345.78101563 92.73320312 346.31984375 92.0625 346.875 C91.41410156 347.42929687 90.76570313 347.98359375 90.09765625 348.5546875 C85.33518209 351.83609428 80.96359967 352.29384162 75.29948425 352.2784729 C74.53158784 352.2842653 73.76369142 352.2900577 72.97252542 352.29602563 C70.40375999 352.31300821 67.83517442 352.31590062 65.26635742 352.31884766 C63.42327434 352.32814704 61.58019546 352.33831572 59.73712158 352.34928894 C54.73552 352.37660188 49.7339466 352.39174222 44.73229003 352.40471697 C39.5045433 352.42034181 34.27685417 352.4471341 29.04914856 352.4727478 C19.15057387 352.51954701 9.25198835 352.55628562 -0.64664048 352.58942068 C-11.91622695 352.62763396 -23.18575558 352.67704622 -34.4552933 352.72740483 C-57.63681934 352.8307417 -80.81838252 352.91999643 -104 353 C-103.71741333 354.14380127 -103.43482666 355.28760254 -103.14367676 356.46606445 C-102.77322098 357.9942312 -102.40307984 359.52247424 -102.03320312 361.05078125 C-101.75370819 362.17667664 -101.75370819 362.17667664 -101.46856689 363.32531738 C-99.80748252 370.23730003 -99.38256247 376.89274185 -99.5 384 C-99.51281006 385.20624023 -99.52562012 386.41248047 -99.53881836 387.65527344 C-100.13369968 413.9853913 -111.20467322 436.6667467 -130 455 C-140.96444124 465.20660486 -153.75060618 472.44019398 -168 477 C-169.45599609 477.47953125 -169.45599609 477.47953125 -170.94140625 477.96875 C-195.37571194 484.57426944 -220.79417893 480.02616231 -243 469 C-243.68769974 468.47853897 -244.37539948 467.95707794 -245.0839386 467.41981506 C-249.37481487 465.33060982 -253.33419215 465.57661107 -258.04760742 465.59936523 C-259.05639954 465.59238617 -260.06519165 465.5854071 -261.10455322 465.57821655 C-264.43827664 465.55822893 -267.77169071 465.55873991 -271.10546875 465.55859375 C-273.4285007 465.54681925 -275.75152508 465.53345486 -278.07453918 465.51856995 C-284.19450293 465.48235697 -290.31439974 465.4621795 -296.43444824 465.44702148 C-306.21199707 465.42221586 -315.98939772 465.38233546 -325.76680946 465.32512093 C-329.17336659 465.30886622 -332.57978287 465.30502022 -335.9863739 465.30210876 C-338.09272498 465.29232426 -340.1990739 465.28205965 -342.30541992 465.27124023 C-343.24343948 465.27379318 -344.18145905 465.27634613 -345.14790344 465.27897644 C-355.40883396 465.20025609 -364.08184829 463.88864059 -372 457 C-377.77676269 450.67895989 -380.40482502 444.95094884 -380.4375 436.3125 C-380.44330078 435.25337402 -380.44330078 435.25337402 -380.44921875 434.17285156 C-380.32872801 428.67797156 -379.050187 424.7130749 -376.09375 420.015625 C-374.682039 417.79625301 -374.682039 417.79625301 -375 414 C-375.78389639 412.55539094 -376.62453132 411.14102246 -377.5 409.75 C-381.11819971 402.7617057 -381.00263548 395.62002965 -380 388 C-378.93748325 385.08357472 -377.74343434 382.63679013 -376.09375 380.015625 C-374.682039 377.79625301 -374.682039 377.79625301 -375 374 C-375.78389639 372.55539094 -376.62453132 371.14102246 -377.5 369.75 C-380.01819777 364.96328412 -380.46652519 360.98701564 -380.4375 355.6875 C-380.43492187 355.0059082 -380.43234375 354.32431641 -380.4296875 353.62207031 C-380.31239027 349.64764918 -379.57992423 346.61958051 -378 343 C-378.34150896 340.13132471 -379.08522925 337.74431224 -380 335 C-380.10254908 332.18155468 -380.14780596 329.38756338 -380.14717102 326.56880188 C-380.15084771 325.69800293 -380.1545244 324.82720397 -380.1583125 323.93001717 C-380.16936012 321.00062077 -380.17319502 318.07125983 -380.17700195 315.1418457 C-380.1832658 313.04603462 -380.18991253 310.95022464 -380.19691467 308.85441589 C-380.21433188 303.15176278 -380.22487847 297.44911806 -380.2331202 291.74644494 C-380.23826898 288.18427081 -380.24434478 284.62209928 -380.25063133 281.05992699 C-380.26968568 269.91667911 -380.28391614 258.77343788 -380.2922433 247.63017684 C-380.30201671 234.76364391 -380.32833805 221.89728297 -380.36874419 209.03081065 C-380.39889675 199.08845539 -380.41371138 189.14614946 -380.41702431 179.20374936 C-380.41937582 173.26444606 -380.42834947 167.32532645 -380.45348549 161.38607216 C-380.47675592 155.79725521 -380.48100342 150.20874304 -380.47072411 144.61989021 C-380.47022839 142.57045224 -380.47655945 140.52099931 -380.49028015 138.47160721 C-380.50798865 135.6694123 -380.5008979 132.86831236 -380.48774719 130.06611633 C-380.49871644 129.25880249 -380.50968568 128.45148864 -380.52098733 127.61971074 C-380.44573171 120.95857117 -378.44160479 115.78624483 -374.03515625 110.7578125 C-373.38417969 110.21898438 -372.73320312 109.68015625 -372.0625 109.125 C-371.41410156 108.57070312 -370.76570313 108.01640625 -370.09765625 107.4453125 C-365.57351078 104.3281173 -361.67825567 103.74625107 -356.2355957 103.71289062 C-355.5743721 103.70605759 -354.9131485 103.69922455 -354.23188782 103.69218445 C-352.79860622 103.67863103 -351.36527675 103.66955556 -349.93194008 103.66447449 C-347.63489841 103.65610097 -345.33823868 103.63550278 -343.04130554 103.61193848 C-338.13176206 103.56379223 -333.22217736 103.53101357 -328.3125 103.5 C-288.68944548 103.53169583 -288.68944548 103.53169583 -249.5 98.3125 C-248.18833158 98.04629911 -246.87664484 97.78018844 -245.56494141 97.51416016 C-181.54025376 84.32545534 -120.89984261 57.58116457 -62.56738281 28.76025391 C-59.33884208 27.16719487 -56.10425129 25.58736143 -52.8671875 24.01171875 C-41.28049645 18.33722141 -30.02759031 12.18105699 -18.84375 5.75 C-7.31988813 -0.82643898 -7.31988813 -0.82643898 0 0 Z " fill="#010100" transform="translate(396,16)"/>
<path d="M0 0 C105.27 0 210.54 0 319 0 C319.66 4.62 320.32 9.24 321 14 C326.07852858 32.0342795 335.28211123 45.62841728 351.58203125 55.17578125 C362.04978591 60.76257145 370.86665123 62.38222016 383 64 C383 93.04 383 122.08 383 152 C378.71 152.66 374.42 153.32 370 154 C353.58870356 157.7845757 339.49568554 166.27749047 330.0625 180.4375 C324.42241544 190.06691266 320.51301284 200.11336515 319.453125 211.2421875 C319.36708008 212.13534668 319.28103516 213.02850586 319.19238281 213.94873047 C319.09715332 214.96410889 319.09715332 214.96410889 319 216 C301.79741335 216.25724325 284.59542884 216.45107144 267.39135742 216.56993389 C259.40266536 216.62659749 251.41516991 216.70380957 243.42724609 216.82983398 C236.46285281 216.93965769 229.49932615 217.01048191 222.534091 217.03497344 C218.8472683 217.04928648 215.16292416 217.08278063 211.47689819 217.16303062 C207.35588906 217.25201863 203.2391547 217.25387874 199.1171875 217.2487793 C197.90230148 217.28832733 196.68741547 217.32787537 195.43571472 217.36862183 C190.33543405 217.30037628 187.25882744 217.22196205 183.498703 213.57195473 C181.4677995 210.79363077 179.71471765 207.98056586 178 205 C160.60194799 183.69227338 137.64396643 171.50694862 110.2421875 168.6015625 C107.16167433 168.35538758 104.08658344 168.14868924 101 168 C101.165 166.906875 101.33 165.81375 101.5 164.6875 C101.67834561 163.12628993 101.84388881 161.56358988 102 160 C102.13728516 158.73349609 102.13728516 158.73349609 102.27734375 157.44140625 C102.75019832 149.49514281 100.48415822 143.53979578 96 137 C90.69794181 131.35336361 83.67911359 128.43483308 76.01055527 127.72218895 C72.50822189 127.61819011 69.01701461 127.60604667 65.51318359 127.62768555 C64.17347431 127.62525298 62.83376684 127.62152916 61.49406433 127.61662292 C57.88050774 127.60727568 54.26722494 127.61658597 50.65368986 127.62995505 C46.85999773 127.64133266 43.06631784 127.63715731 39.27261353 127.63520813 C32.9059811 127.63432735 26.53945559 127.64536187 20.17285156 127.66381836 C12.8240614 127.68500087 5.47542754 127.68849069 -1.87338698 127.6822564 C-8.96140255 127.6765525 -16.04936339 127.68221932 -23.13737106 127.69342995 C-26.14596957 127.6980605 -29.15453444 127.69895652 -32.16313553 127.6968441 C-35.70745134 127.6949538 -39.25160912 127.70312178 -42.7958889 127.7189045 C-44.70886109 127.7251362 -46.62185728 127.72165107 -48.53483582 127.71783447 C-50.25886879 127.72846169 -50.25886879 127.72846169 -52.01773071 127.73930359 C-53.00987391 127.74135646 -54.0020171 127.74340933 -55.02422523 127.74552441 C-58.73031894 127.96663468 -58.73031894 127.96663468 -65 130 C-65 108.22 -65 86.44 -65 64 C-58.07 63.01 -58.07 63.01 -51 62 C-34.52674086 57.6892406 -20.59186658 49.94908296 -11.0625 35.5 C-10.01344893 33.68266578 -8.99119641 31.84952466 -8 30 C-7.52949219 29.1853125 -7.05898437 28.370625 -6.57421875 27.53125 C-1.78033013 18.36771069 -1.74769459 11.06873243 0 0 Z " fill="#A6C204" transform="translate(97,136)"/>
<path d="M0 0 C1.36089276 1.13783667 2.71565895 2.28306482 4.0625 3.4375 C4.65160156 3.88351562 5.24070313 4.32953125 5.84765625 4.7890625 C19.31134561 15.27785922 28.75038409 33.96401882 31.60546875 50.6015625 C34.2513037 72.80848491 30.24376487 94.39931481 16.4375 112.4375 C15.31994803 113.77708216 14.19578335 115.11120002 13.0625 116.4375 C12.299375 117.448125 11.53625 118.45875 10.75 119.5 C-0.08736686 131.34549401 -13.74769829 138.08591518 -28.9375 142.4375 C-30.19820313 142.80617188 -31.45890625 143.17484375 -32.7578125 143.5546875 C-51.26178007 148.05788521 -71.51854652 143.28858162 -87.9375 134.4375 C-91.82305352 132.00484718 -95.39446437 129.34162756 -98.9375 126.4375 C-99.64132813 125.89609375 -100.34515625 125.3546875 -101.0703125 124.796875 C-115.5001213 113.13985299 -123.01914608 96.11222547 -126.9375 78.4375 C-127.13085938 77.65375 -127.32421875 76.87 -127.5234375 76.0625 C-130.69878041 55.93202416 -125.73140866 34.99477371 -113.9375 18.4375 C-112.62260857 16.75624569 -111.29053982 15.08820858 -109.9375 13.4375 C-109.12539062 12.38175781 -109.12539062 12.38175781 -108.296875 11.3046875 C-82.38689324 -20.76834818 -32.04125685 -24.43550396 0 0 Z " fill="#FDC827" transform="translate(247.9375,335.5625)"/>
<path d="M0 0 C0 14.85 0 29.7 0 45 C-55.54141115 65.14455327 -112.21098594 82.42208526 -171.875 82.0625 C-173.35286304 82.05746663 -174.83072777 82.05290702 -176.30859375 82.04882812 C-179.87243195 82.03798718 -183.43620447 82.02082779 -187 82 C-184.17839727 79.17839727 -180.78202614 78.4392596 -177.06640625 77.234375 C-175.38615042 76.67642992 -173.70606347 76.11797608 -172.02612305 75.55908203 C-171.13645844 75.26503479 -170.24679382 74.97098755 -169.33016968 74.66802979 C-125.43110649 60.10680961 -83.33350915 41.43741644 -41.90863037 20.9432373 C-40.01922677 20.00950179 -38.12829064 19.07894701 -36.23681641 18.14941406 C-32.71689658 16.41911541 -29.20154481 14.67970383 -25.6875 12.9375 C-24.16842041 12.18786987 -24.16842041 12.18786987 -22.61865234 11.4230957 C-16.38357809 8.30868706 -10.37286499 4.93120374 -4.40942383 1.32250977 C-2 0 -2 0 0 0 Z " fill="#A5C004" transform="translate(384,38)"/>
<path d="M0 0 C2.8125 1.75 2.8125 1.75 5 5 C5.12687802 6.99694973 5.1825715 8.99902975 5.1875 11 C5.20921982 14.16091108 5.20921982 14.16091108 6 17 C8.33606565 18.89495885 10.56858166 19.79044775 13.36328125 20.8828125 C20.26050147 23.80519025 24.09727995 29.97107969 27.11328125 36.57421875 C28.36351515 39.99446214 28.70299001 42.41475096 28 46 C25.55804571 49.37564269 24.0769435 50.75320045 20 51.6875 C16.56158795 50.89953057 15.23500639 49.64486655 13.13671875 46.8515625 C11.94755047 44.91456675 11.08258412 42.96222673 10.1875 40.875 C8.30128193 36.92075972 6.16345729 35.2966811 2.1484375 33.625 C-2.79644491 32.18648875 -6.52721453 32.26360726 -11.25 34.625 C-14.77004904 37.66504235 -17.46478217 40.36392714 -18.41796875 45.05859375 C-18.65791395 47.47649459 -18.65791395 47.47649459 -18 51 C-13.0138163 55.40202829 -5.77168188 55.08519781 0.54492188 55.72851562 C9.77284879 56.80035044 18.44006944 59.12769179 25 66 C29.57537525 72.13386245 29.91128925 78.56876497 29 86 C27.3007949 93.55090552 24.15096577 100.13139105 18 105 C15.89460689 105.98074008 13.76789484 106.91665797 11.625 107.8125 C8.48668027 109.10990344 8.48668027 109.10990344 6 111 C5.00575977 113.96082114 4.93291805 116.32194767 4.9921875 119.43359375 C5.00213031 122.69980766 4.07530472 124.50963433 2 127 C-0.80915474 128.40457737 -2.88810534 128.24895157 -6 128 C-9.1359157 126.22015595 -9.84102736 125.47691793 -11 122 C-11.068991 119.93854893 -11.08467727 117.87498599 -11.0625 115.8125 C-11.05347656 114.72582031 -11.04445312 113.63914062 -11.03515625 112.51953125 C-11.02355469 111.68808594 -11.01195312 110.85664063 -11 110 C-11.825 109.95875 -12.65 109.9175 -13.5 109.875 C-20.56964321 108.1075892 -25.8695876 102.85141757 -30 97 C-32.89654414 91.81471115 -35.06633844 87.04258448 -34 81 C-31.9375 78.5 -31.9375 78.5 -29 77 C-23.12908911 77.1012226 -23.12908911 77.1012226 -20.4296875 79.25 C-18.71430689 81.34970085 -17.81384199 83.44646155 -16.75 85.9375 C-14.21071225 91.11432175 -12.43796812 93.00607836 -7 95 C-2.27728005 95.77475685 0.99132912 95.49481968 5.3125 93.375 C8.75154806 90.33584125 11.60879818 87.62105221 12.3125 82.90625 C12.42897282 80.47988814 12.42897282 80.47988814 12 77 C9.26612193 74.26612193 6.36064209 74.12750574 2.6875 73.5 C1.97126465 73.36891846 1.2550293 73.23783691 0.51708984 73.1027832 C-3.93552632 72.30206312 -8.38140163 71.7177339 -12.875 71.1875 C-19.96680911 70.10525122 -26.10092443 67.60208466 -30.69140625 61.8984375 C-31.92189109 59.97032736 -33.00388124 58.05710107 -34 56 C-34.33 55.34 -34.66 54.68 -35 54 C-35.97556854 42.99686636 -34.39212965 34.76501536 -27.3125 26.1875 C-23.45263872 22.11079258 -19.24530861 19.05880949 -14 17 C-13.01 17 -12.02 17 -11 17 C-11.05800781 16.19175781 -11.11601562 15.38351563 -11.17578125 14.55078125 C-11.54389122 5.83183363 -11.54389122 5.83183363 -8.875 1.75 C-5.44812458 -0.33592417 -3.9330652 -0.81938858 0 0 Z " fill="#020200" transform="translate(259,172)"/>
<path d="M0 0 C0.66 -0.0103125 1.32 -0.020625 2 -0.03125 C5.00101226 0.76589388 6.16507889 2.0155493 8 4.5 C8.390625 7.734375 8.390625 7.734375 8.25 11.25 C8.21390625 12.42046875 8.1778125 13.5909375 8.140625 14.796875 C8.09421875 15.68890625 8.0478125 16.5809375 8 17.5 C8.56847656 17.64695312 9.13695312 17.79390625 9.72265625 17.9453125 C19.34862924 20.74150499 23.90361056 25.64505475 28.8359375 34.23046875 C30.99538268 38.4406622 31.49533575 41.79431038 31 46.5 C28.23797863 49.76420707 26.62431852 50.42465121 22.375 50.9375 C18.6874255 50.45948108 18.21826976 50.25621528 16 47.5 C15.18398135 45.87609577 14.41608044 44.22746905 13.6875 42.5625 C11.45027653 38.0418567 9.83900589 35.47144685 5 33.5 C-0.3658691 32.74717657 -4.58152874 32.81609422 -9.5 35.1875 C-12.86820459 38.30308925 -14.84923712 40.31896361 -15.17578125 45.04296875 C-15.18633374 47.53687327 -15.13055302 50.00982206 -15 52.5 C-9.7782922 53.93018803 -4.70973037 54.8533104 0.66381836 55.48730469 C11.0379372 56.73163844 20.06234741 57.97235432 27.5 65.9375 C32.06718664 71.94967225 32.83763141 78.1309642 32 85.5 C29.66023494 95.57359926 24.2443699 102.84825287 15.7109375 108.6015625 C13.2113535 109.91412944 10.79195667 110.29571049 8 110.5 C8.02320313 111.31984375 8.04640625 112.1396875 8.0703125 112.984375 C8.08835938 114.06203125 8.10640625 115.1396875 8.125 116.25 C8.14820313 117.31734375 8.17140625 118.3846875 8.1953125 119.484375 C8.00295193 122.45442219 7.60614216 124.03383136 6 126.5 C3.41728274 128.43703795 2.19092472 128.51558569 -1.0625 128.25 C-4 127.5 -4 127.5 -7 125.5 C-8.09506492 122.21480525 -8.09960608 119.76336585 -8.0625 116.3125 C-8.05347656 115.22582031 -8.04445312 114.13914062 -8.03515625 113.01953125 C-8.02355469 112.18808594 -8.01195312 111.35664063 -8 110.5 C-8.73476562 110.38527344 -9.46953125 110.27054687 -10.2265625 110.15234375 C-18.23386931 108.26893497 -23.18325902 102.55909465 -27.58984375 95.96484375 C-30.39865331 91.0552625 -31.62345552 87.2150089 -31 81.5 C-29.4375 79.0625 -29.4375 79.0625 -27 77.5 C-23.5625 76.9375 -23.5625 76.9375 -20 77.5 C-16.54167512 80.07363712 -14.81405646 82.72199711 -13.0625 86.5625 C-11.10279248 90.66007027 -9.26310366 92.60528726 -5 94.5 C-0.09338269 95.27857068 4.42608124 95.14541893 8.9375 92.9375 C12.61481375 90.01065844 13.70464885 87.99563048 15 83.5 C15.25197243 79.70747213 15.25197243 79.70747213 15 76.5 C8.84390101 73.90267152 3.2385737 72.8563344 -3.375 72.125 C-13.84574971 70.77721679 -21.94858463 68.84244221 -28.84375 60.34375 C-32.77144925 54.080662 -32.91036866 47.69432932 -32 40.5 C-28.90180574 31.27157084 -23.57957869 24.16759774 -15.3125 19.0625 C-12 17.5 -12 17.5 -8 17.5 C-8.04640625 16.60796875 -8.0928125 15.7159375 -8.140625 14.796875 C-8.19476563 13.04117187 -8.19476563 13.04117187 -8.25 11.25 C-8.29640625 10.08984375 -8.3428125 8.9296875 -8.390625 7.734375 C-8 4.5 -8 4.5 -6.234375 2.109375 C-3.87988376 0.41348271 -2.85547686 -0.04461683 0 0 Z " fill="#030300" transform="translate(200,335.5)"/>
<path d="M0 0 C1.68648651 -0.01279495 1.68648651 -0.01279495 3.40704346 -0.02584839 C4.63623505 -0.02494202 5.86542664 -0.02403564 7.13186646 -0.02310181 C8.42979126 -0.02981903 9.72771606 -0.03653625 11.06497192 -0.04345703 C14.62289457 -0.06111599 18.18072099 -0.06581236 21.73868322 -0.0670886 C23.96262072 -0.06851083 26.18653381 -0.07278179 28.41046524 -0.07808304 C36.17210695 -0.09658303 43.93367999 -0.1047537 51.69534302 -0.10317993 C58.92540968 -0.10197856 66.15517779 -0.12307993 73.38516891 -0.15466726 C79.59677115 -0.18083628 85.80827593 -0.19154697 92.01993287 -0.19026911 C95.72800387 -0.18975965 99.43580953 -0.19543354 103.14382553 -0.21662521 C107.2806711 -0.23962249 111.41684959 -0.23048296 115.55374146 -0.21841431 C116.77888458 -0.22965332 118.00402771 -0.24089233 119.26629639 -0.25247192 C127.10291341 -0.19429202 130.62685098 0.67843453 136.34719849 6.01742554 C138.04038443 9.40379743 137.98047128 12.60362583 137.47219849 16.26742554 C136.24225254 19.88893306 135.28458204 21.68812034 132.16716003 23.91113281 C126.63193982 25.94292091 121.32945273 25.68443105 115.47781372 25.65560913 C114.168237 25.66086609 112.85866028 25.66612305 111.50939941 25.67153931 C107.9288694 25.68517983 104.3485996 25.67992827 100.76806521 25.67040205 C97.01612078 25.66279005 93.26419815 25.66985519 89.51225281 25.67456055 C83.21346041 25.68001295 76.91477366 25.67283936 70.61599731 25.65853882 C63.33819254 25.64220614 56.06063983 25.64750725 48.78284115 25.66401803 C42.52789481 25.67763917 36.27302427 25.67954972 30.0180679 25.67170203 C26.28497216 25.66702985 22.55199486 25.6663882 18.81890678 25.67631149 C14.65818258 25.6865998 10.49789198 25.67233358 6.33718872 25.65560913 C4.48476814 25.66471817 4.48476814 25.66471817 2.59492493 25.67401123 C1.46081177 25.66555176 0.32669861 25.65709229 -0.84178162 25.64837646 C-2.31648344 25.64667985 -2.31648344 25.64667985 -3.82097721 25.64494896 C-7.04532795 25.19524562 -8.90843629 24.17479264 -11.52780151 22.26742554 C-14.16604493 18.35554737 -15.12793309 14.88085981 -14.94967651 10.22836304 C-14.16582791 6.5849186 -12.2010426 4.81915567 -9.52780151 2.26742554 C-6.30054773 0.2400438 -3.78060162 0.01297392 0 0 Z " fill="#F9C526" transform="translate(46.527801513671875,278.7325744628906)"/>
<path d="M0 0 C0 14.19 0 28.38 0 43 C-38.94 43 -77.88 43 -118 43 C-118 42.67 -118 42.34 -118 42 C-116.90171875 41.70609375 -115.8034375 41.4121875 -114.671875 41.109375 C-77.45598491 30.91912228 -38.10662338 18.6811348 -3.80883789 0.86157227 C-2 0 -2 0 0 0 Z " fill="#A5C004" transform="translate(440,77)"/>
<path d="M0 0 C1.06845406 -0.00021904 1.06845406 -0.00021904 2.15849304 -0.0004425 C4.51763941 0.00025528 6.87670724 0.00804142 9.23583984 0.01586914 C10.86965898 0.0177338 12.50347868 0.01915747 14.13729858 0.02015686 C18.44125914 0.0239783 22.74518605 0.03380541 27.0491333 0.04486084 C31.43948918 0.05508297 35.82985049 0.0596562 40.22021484 0.06469727 C48.8374178 0.075428 57.45459339 0.09249996 66.07177734 0.11352539 C66.86841797 1.53701294 66.86841797 1.53701294 67.68115234 2.98925781 C68.39449604 4.25344832 69.10804885 5.51752084 69.82177734 6.78149414 C70.16982422 7.40471558 70.51787109 8.02793701 70.87646484 8.67004395 C73.4903702 13.28522059 76.43433697 17.44866994 79.82177734 21.53930664 C81.07177734 23.11352539 81.07177734 23.11352539 81.07177734 24.11352539 C69.71905595 24.25268836 58.36653824 24.35922937 47.01313686 24.42439842 C41.74095418 24.45568028 36.46935604 24.49809609 31.19750977 24.56616211 C26.10759315 24.63146619 21.01823794 24.66725509 15.92793465 24.68278885 C13.98824287 24.69385533 12.04858102 24.71546626 10.10912895 24.74790573 C7.38694313 24.79161685 4.66706169 24.79745351 1.94458008 24.79467773 C1.14688202 24.81624939 0.34918396 24.83782104 -0.47268677 24.86004639 C-5.87655503 24.80062375 -8.65327035 23.35442691 -12.61125088 19.69504738 C-14.64393015 17.25404825 -14.94719617 14.97257927 -15.36572266 11.86352539 C-14.78424536 6.87943427 -12.55540667 4.44001022 -8.92822266 1.11352539 C-5.96414707 -0.3685124 -3.307431 -0.00568287 0 0 Z " fill="#FEC927" transform="translate(46.92822265625,439.886474609375)"/>
<path d="M0 0 C11.11467613 13.76410474 12.64447352 34.02183675 11 51 C8.58995337 66.2455759 2.00335368 80.29291211 -8 92 C-8.763125 93.010625 -9.52625 94.02125 -10.3125 95.0625 C-21.14986686 106.90799401 -34.81019829 113.64841518 -50 118 C-51.26070312 118.36867188 -52.52140625 118.73734375 -53.8203125 119.1171875 C-72.9035151 123.7613501 -91.860618 118.12451225 -109 110 C-105.32158511 108.84835146 -103.06876933 109.48302979 -99.37304688 110.49755859 C-94.71752779 111.48326418 -89.99018729 111.33807255 -85.25 111.3125 C-83.64439209 111.30512817 -83.64439209 111.30512817 -82.00634766 111.29760742 C-74.59553976 111.18741164 -68.01099963 110.51547393 -61 108 C-59.87851563 107.64808594 -58.75703125 107.29617188 -57.6015625 106.93359375 C-35.28923163 99.60101647 -17.93873664 84.57387467 -6.94580078 63.90527344 C-4.40509252 58.78713011 -2.64165271 53.4593 -1 48 C-0.68160156 47.05125 -0.36320312 46.1025 -0.03515625 45.125 C4.33528093 30.62401029 2.11301547 14.73450964 0 0 Z " fill="#FAB000" transform="translate(269,360)"/>
<path d="M0 0 C0.96955124 0.00707474 1.93910248 0.01414948 2.93803406 0.0214386 C6.02589012 0.04936251 9.1119135 0.11209822 12.19921875 0.17578125 C14.29619772 0.20086667 16.39320519 0.22367941 18.49023438 0.24414062 C23.62309884 0.29918287 28.75459839 0.38544266 33.88671875 0.48828125 C33.61595945 8.42320207 33.03704476 14.94964669 29.13671875 21.92578125 C28.8015625 22.57998047 28.46640625 23.23417969 28.12109375 23.90820312 C22.24349706 35.02888322 12.72379078 42.34842653 0.88671875 46.48828125 C-4.57895115 48.10125297 -9.40238977 48.51987448 -15.11328125 48.48828125 C-15.2370252 42.45604922 -15.32768938 36.4245584 -15.38793945 30.39135742 C-15.41305931 28.33979419 -15.44716161 26.28832024 -15.49047852 24.23706055 C-15.55124127 21.28542034 -15.57951617 18.33496475 -15.6015625 15.3828125 C-15.62736893 14.46804642 -15.65317535 13.55328033 -15.67976379 12.61079407 C-15.68162214 8.37642235 -15.47028503 6.06896332 -13.21484375 2.40039062 C-8.77501817 -0.33675625 -5.11737403 -0.14099458 0 0 Z " fill="#93AB03" transform="translate(47.11328125,135.51171875)"/>
<path d="M0 0 C0.80221481 0.00733154 1.60442963 0.01466309 2.43095398 0.0222168 C3.03808731 0.03164307 3.64522064 0.04106934 4.27075195 0.05078125 C4.34500834 5.94064588 4.39940463 11.83023691 4.43554688 17.72045898 C4.45061661 19.72343697 4.47107605 21.72638205 4.49707031 23.72924805 C4.53353323 26.61124806 4.55049656 29.49281109 4.5637207 32.375 C4.57920456 33.2678923 4.59468842 34.16078461 4.61064148 35.08073425 C4.61193682 39.88551192 4.45266948 43.17358984 1.27075195 47.05078125 C-1.03745313 48.20488379 -2.33709081 48.17181095 -4.90356445 48.16430664 C-6.19467636 48.16419334 -6.19467636 48.16419334 -7.51187134 48.16407776 C-8.44212128 48.15891647 -9.37237122 48.15375519 -10.33081055 48.1484375 C-11.28241058 48.14702255 -12.23401062 48.1456076 -13.21444702 48.14414978 C-16.26107902 48.13854137 -19.30763817 48.12598744 -22.35424805 48.11328125 C-24.41674699 48.10826733 -26.47924708 48.10370424 -28.54174805 48.09960938 C-33.60427622 48.08856921 -38.66674977 48.07129892 -43.72924805 48.05078125 C-43.83998573 34.79722944 -39.22978285 23.52588841 -30.16674805 13.80078125 C-22.09451007 6.14312952 -11.37650652 -0.13527201 0 0 Z " fill="#92AA03" transform="translate(475.729248046875,303.94921875)"/>
<path d="M0 0 C5.88986463 -0.07425639 11.77945566 -0.12865268 17.66967773 -0.16479492 C19.67265572 -0.17986465 21.6756008 -0.2003241 23.6784668 -0.22631836 C26.56046681 -0.26278127 29.44202984 -0.27974461 32.32421875 -0.29296875 C33.21711105 -0.30845261 34.11000336 -0.32393646 35.029953 -0.33988953 C39.83473067 -0.34118487 43.12280859 -0.18191753 47 3 C48.15410254 5.30820508 48.1210297 6.60784276 48.11352539 9.17431641 C48.11344986 10.03505768 48.11337433 10.89579895 48.11329651 11.78262329 C48.10813522 12.71287323 48.10297394 13.64312317 48.09765625 14.6015625 C48.0962413 15.55316254 48.09482635 16.50476257 48.09336853 17.48519897 C48.08776012 20.53183097 48.07520619 23.57839013 48.0625 26.625 C48.05748608 28.68749894 48.05292299 30.74999903 48.04882812 32.8125 C48.03778796 37.87502817 48.02051767 42.93750173 48 48 C34.76240064 48.11060439 23.51120599 43.49330476 13.75 34.5 C4.72448774 24.97147352 -0.0544602 13.07044876 0 0 Z " fill="#93AA03" transform="translate(432,136)"/>
<path d="M0 0 C0.70254913 -0.00014603 1.40509827 -0.00029205 2.12893677 -0.0004425 C4.45561795 0.00025525 6.78221949 0.0080412 9.10888672 0.01586914 C10.72028561 0.01773381 12.33168506 0.01915748 13.94308472 0.02015686 C18.18786174 0.02397819 22.43260464 0.03380521 26.67736816 0.04486084 C31.0074009 0.05508321 35.33743915 0.05965625 39.66748047 0.06469727 C48.16619406 0.07542781 56.6648799 0.09249964 65.16357422 0.11352539 C64.24767543 4.92908617 62.73986285 9.36559491 61.10107422 13.98071289 C60.09252197 17.35095834 59.62877387 20.63121785 59.16357422 24.11352539 C50.64462807 24.1830955 42.125801 24.23637205 33.60664082 24.26896191 C29.65066288 24.28460496 25.69487959 24.30581809 21.73901367 24.33984375 C17.91998066 24.37248617 14.10113465 24.39038864 10.28197289 24.39815712 C8.82633712 24.4036919 7.37071137 24.41450011 5.91515541 24.43071556 C3.87314519 24.45255561 1.83190351 24.4554897 -0.21020508 24.45410156 C-1.37158493 24.4607634 -2.53296478 24.46742523 -3.72953796 24.47428894 C-7.2096696 24.07018531 -9.05060905 23.20444879 -11.83642578 21.11352539 C-14.70956194 16.75428432 -15.65387753 13.29071977 -14.83642578 8.11352539 C-10.645138 1.66637629 -7.65572385 -0.0133375 0 0 Z " fill="#FDC827" transform="translate(46.83642578125,359.886474609375)"/>
<path d="M0 0 C1.28117706 0.00007553 2.56235413 0.00015106 3.88235474 0.00022888 C5.28599079 0.00533591 6.68962645 0.01055191 8.09326172 0.01586914 C9.52529857 0.01773394 10.95733606 0.01915755 12.38937378 0.02015686 C16.16068276 0.0239772 19.93195329 0.03380337 23.70324707 0.04486084 C27.55069458 0.05508534 31.39814829 0.05965671 35.24560547 0.06469727 C42.79640425 0.07542606 50.34717135 0.0924967 57.89794922 0.11352539 C58.98241901 8.10490958 60.05361786 16.09237753 60.89794922 24.11352539 C52.28325419 24.25284831 43.66903364 24.35930778 35.05348873 24.42439842 C31.05242417 24.4556469 27.0521331 24.49799765 23.05151367 24.56616211 C19.18702717 24.63159132 15.32328223 24.66728017 11.45828438 24.68278885 C9.98746637 24.69383347 8.51668674 24.71540208 7.04618645 24.74790573 C-5.9118299 25.02280785 -5.9118299 25.02280785 -10.49829102 21.2644043 C-13.28369571 18.38358999 -14.00251698 15.85291931 -14.53955078 11.86352539 C-13.95807348 6.87943427 -11.7292348 4.44001022 -8.10205078 1.11352539 C-5.33354255 -0.27072872 -3.09785894 -0.00607423 0 0 Z " fill="#FDC827" transform="translate(46.10205078125,399.886474609375)"/>
<path d="M0 0 C0.64446579 -0.00043808 1.28893158 -0.00087616 1.95292664 -0.00132751 C4.06878676 0.00075127 6.18384002 0.02403749 8.29956055 0.04760742 C9.77214627 0.05320666 11.24473761 0.05747521 12.71733093 0.06047058 C16.58244408 0.07189369 20.44721597 0.10133861 24.31219482 0.13458252 C28.2604104 0.16533834 32.20868143 0.17898766 36.15698242 0.1940918 C43.89606984 0.22621113 51.63487665 0.2773763 59.3737793 0.34057617 C56.49057003 3.24037945 53.61373929 6.06592141 50.4987793 8.71557617 C43.44463209 14.67282477 43.44463209 14.67282477 37.85449219 21.90771484 C34.19246977 25.4990989 30.99580376 25.07928796 26.04174805 25.03979492 C25.13177567 25.04695023 24.22180328 25.05410553 23.28425598 25.06147766 C21.36024963 25.06925515 19.43615507 25.06424143 17.51220703 25.04736328 C14.58088574 25.02820432 11.65435022 25.06744663 8.72338867 25.11206055 C6.85033899 25.11235106 4.977285 25.10920703 3.10424805 25.10229492 C1.79921577 25.12521858 1.79921577 25.12521858 0.46781921 25.14860535 C-5.23830648 25.04043679 -8.20584651 23.77875163 -12.33940125 19.8216095 C-14.91089592 16.8620107 -14.90392737 14.22741842 -14.84106445 10.37182617 C-14.52332694 7.36776245 -13.54164355 5.65229341 -11.6262207 3.34057617 C-7.66812582 0.43306282 -4.86885001 -0.02792839 0 0 Z " fill="#FDC827" transform="translate(86.626220703125,319.659423828125)"/>
<path d="M0 0 C0.495 0.7425 0.99 1.485 1.5 2.25 C5.3587099 6.49458089 9.28796433 8.67054185 14.94882202 9.35822296 C18.52808557 9.49180668 22.08640178 9.49462656 25.66796875 9.45410156 C27.03858914 9.4529716 28.40921194 9.45360984 29.77983093 9.45587158 C33.4798676 9.45701389 37.17937996 9.43358399 40.87929535 9.40557575 C44.75364994 9.3804807 48.62801807 9.37821374 52.50244141 9.37347412 C59.82985387 9.36106804 67.1570261 9.32827877 74.48433304 9.28807616 C82.83015406 9.24328445 91.17598687 9.22135286 99.52189827 9.20129442 C116.6814042 9.15954381 133.84067666 9.08923818 151 9 C149.28910637 13.77647018 149.28910637 13.77647018 146.68714905 15.78823853 C141.14194462 17.61063979 135.80663629 17.4167562 130.00561523 17.38818359 C128.69603851 17.39344055 127.38646179 17.39869751 126.03720093 17.40411377 C122.45667091 17.4177543 118.87640111 17.41250273 115.29586673 17.40297651 C111.54392229 17.39536451 107.79199966 17.40242965 104.04005432 17.40713501 C97.74126192 17.41258741 91.44257518 17.40541382 85.14379883 17.39111328 C77.86599406 17.3747806 70.58844135 17.38008171 63.31064266 17.3965925 C57.05569632 17.41021364 50.80082579 17.41212419 44.54586941 17.40427649 C40.81277368 17.39960432 37.07979638 17.39896266 33.3467083 17.40888596 C29.18598409 17.41917426 25.02569349 17.40490804 20.86499023 17.38818359 C19.01256966 17.39729263 19.01256966 17.39729263 17.12272644 17.40658569 C15.98861328 17.39812622 14.85450012 17.38966675 13.6860199 17.38095093 C12.21131808 17.37925431 12.21131808 17.37925431 10.7068243 17.37752342 C7.48247357 16.92782008 5.61936522 15.90736711 3 14 C-0.22557511 9.2172507 -0.28792938 5.56663461 0 0 Z " fill="#FDB200" transform="translate(32,287)"/>
<path d="M0 0 C0 4.62 0 9.24 0 14 C-101.02669115 50.8367299 -101.02669115 50.8367299 -150 50 C-150 49.67 -150 49.34 -150 49 C-149.142854 48.83508057 -148.28570801 48.67016113 -147.40258789 48.50024414 C-109.46965439 41.12907966 -27.53726912 0 0 0 Z " fill="#92A903" transform="translate(384,69)"/>
<path d="M0 0 C45.54 0.33 91.08 0.66 138 1 C138 3.31 138 5.62 138 8 C120.74546187 8.18688881 103.49123958 8.32795752 86.23592091 8.41449738 C78.22391234 8.45574775 70.21253264 8.51198363 62.20092773 8.60351562 C55.21788942 8.68325829 48.23530648 8.73486638 41.25182551 8.75270796 C37.55387956 8.7631378 33.85723632 8.78764027 30.15970802 8.84584045 C26.03142174 8.91029371 21.90539901 8.9119192 17.77661133 8.90820312 C16.55093948 8.93696533 15.32526764 8.96572754 14.06245422 8.99536133 C12.37352051 8.97886536 12.37352051 8.97886536 10.65046692 8.96203613 C9.18619876 8.97309765 9.18619876 8.97309765 7.69234943 8.98438263 C5 8 5 8 0 0 Z " fill="#93AB03" transform="translate(278,344)"/>
<path d="M0 0 C0.33 0 0.66 0 1 0 C1.33 1.65 1.66 3.3 2 5 C6.79469894 6.91320156 11.02259984 7.23180873 16.11328125 7.08422852 C16.90431244 7.07006393 17.69534363 7.05589935 18.51034546 7.04130554 C20.21932656 7.01037854 21.92823592 6.97525872 23.63705444 6.93637276 C26.34436165 6.87822189 29.0513111 6.83885702 31.7590332 6.8056488 C39.45434535 6.71123046 47.14888676 6.60943522 54.84277344 6.4309082 C59.55702437 6.32289359 64.27010833 6.25901025 68.98544312 6.22398186 C70.77821938 6.20236841 72.57087737 6.1643823 74.36294556 6.10956001 C88.43195618 5.6893275 88.43195618 5.6893275 92.46337891 9.05905151 C94.00233402 11.33979931 95.10561183 13.40481714 96 16 C84.64727861 16.13916297 73.29476089 16.24570398 61.94135952 16.31087303 C56.66917684 16.34215489 51.3975787 16.3845707 46.12573242 16.45263672 C41.03581581 16.5179408 35.94646059 16.5537297 30.8561573 16.56926346 C28.91646553 16.58032994 26.97680368 16.60194087 25.03735161 16.63438034 C22.31516578 16.67809146 19.59528435 16.68392812 16.87280273 16.68115234 C16.07510468 16.702724 15.27740662 16.72429565 14.45553589 16.746521 C9.05166763 16.68709836 6.2749523 15.24090152 2.31697178 11.58152199 C-0.59465316 8.08501665 -0.08156018 4.32268967 0 0 Z " fill="#FDB200" transform="translate(32,448)"/>
<path d="M0 0 C2.31 0 4.62 0 7 0 C7 29.04 7 58.08 7 88 C4.69 88 2.38 88 0 88 C0 58.96 0 29.92 0 0 Z " fill="#93AB04" transform="translate(473,200)"/>
<path d="M0 0 C2.475 0.495 2.475 0.495 5 1 C6.69157394 1.13918537 8.38630373 1.2435836 10.08203125 1.31640625 C11.01337891 1.35830078 11.94472656 1.40019531 12.90429688 1.44335938 C13.86400391 1.48267578 14.82371094 1.52199219 15.8125 1.5625 C16.79154297 1.60568359 17.77058594 1.64886719 18.77929688 1.69335938 C21.18607027 1.7990226 23.59293983 1.90112327 26 2 C25.83757813 3.04027344 25.67515625 4.08054687 25.5078125 5.15234375 C25.08545417 8.3525203 24.86562846 11.34337511 24.875 14.5625 C24.87242188 15.45066406 24.86984375 16.33882813 24.8671875 17.25390625 C25.01116209 20.23079261 25.4581697 23.07153623 26 26 C25.42556152 26.02505615 24.85112305 26.0501123 24.25927734 26.07592773 C21.63100279 26.19269875 19.00301605 26.31505419 16.375 26.4375 C15.47136719 26.47681641 14.56773438 26.51613281 13.63671875 26.55664062 C12.75371094 26.59853516 11.87070312 26.64042969 10.9609375 26.68359375 C10.15446777 26.72025146 9.34799805 26.75690918 8.51708984 26.79467773 C5.65926372 27.0277943 2.82830522 27.5286158 0 28 C0 18.76 0 9.52 0 0 Z " fill="#93AB03" transform="translate(32,318)"/>
<path d="M0 0 C0.33 0 0.66 0 1 0 C1.33 1.65 1.66 3.3 2 5 C6.406945 6.68468473 10.03169122 7.24508931 14.73974609 7.22705078 C15.38435791 7.22734283 16.02896973 7.22763489 16.69311523 7.22793579 C18.80336423 7.22655315 20.91325092 7.21104311 23.0234375 7.1953125 C24.49459643 7.19157856 25.96575785 7.18873339 27.43692017 7.18673706 C31.29371098 7.17913056 35.15034921 7.159508 39.00708008 7.1373291 C42.94870948 7.11680613 46.89036373 7.10772159 50.83203125 7.09765625 C58.55475677 7.07625903 66.27735694 7.04215949 74 7 C74.495 11.455 74.495 11.455 75 16 C66.38530497 16.13932292 57.77108442 16.24578238 49.15553951 16.31087303 C45.15447495 16.34212151 41.15418388 16.38447226 37.15356445 16.45263672 C33.28907795 16.51806592 29.42533301 16.55375478 25.56033516 16.56926346 C24.08951715 16.58030808 22.61873752 16.60187669 21.14823723 16.63438034 C8.19022088 16.90928246 8.19022088 16.90928246 3.60375977 13.15087891 C0.623623 10.0686623 0.011001 7.64905906 -0.0625 3.3125 C-0.041875 2.219375 -0.02125 1.12625 0 0 Z " fill="#FCB100" transform="translate(32,408)"/>
<path d="M0 0 C0.33 0 0.66 0 1 0 C1.33 1.65 1.66 3.3 2 5 C6.41588133 6.68201854 10.1158081 7.26546198 14.83154297 7.31884766 C15.48590836 7.32889328 16.14027374 7.3389389 16.81446838 7.34928894 C18.95703325 7.37994662 21.0994742 7.39710683 23.2421875 7.4140625 C24.73577935 7.43278823 26.22936078 7.45236269 27.72293091 7.4727478 C31.63877194 7.52392678 35.55464721 7.56362827 39.47064209 7.60089111 C43.47270073 7.6410204 47.47461866 7.69207188 51.4765625 7.7421875 C59.31761197 7.83877807 67.15873147 7.92323635 75 8 C74.67 10.64 74.34 13.28 74 16 C65.48105385 16.06957011 56.96222678 16.12284666 48.4430666 16.15543652 C44.48708866 16.17107957 40.53130537 16.1922927 36.57543945 16.22631836 C32.75640645 16.25896078 28.93756044 16.27686325 25.11839867 16.28463173 C23.66276291 16.29016651 22.20713715 16.30097472 20.75158119 16.31719017 C18.70957097 16.33903021 16.66832929 16.34196431 14.6262207 16.34057617 C13.46484085 16.34723801 12.303461 16.35389984 11.10688782 16.36076355 C7.62675618 15.95665992 5.78581673 15.0909234 3 13 C0.09059951 8.58573719 -0.31378312 5.22971874 0 0 Z " fill="#FCB100" transform="translate(32,368)"/>
<path d="M0 0 C0 4.29 0 8.58 0 13 C-38.94 13 -77.88 13 -118 13 C-118 12.67 -118 12.34 -118 12 C-114.7 11.34 -111.4 10.68 -108 10 C-108 10.33 -108 10.66 -108 11 C-75.36950213 11.9514292 -41.90713102 8.08648801 -10.03564453 1.21899414 C-6.57769483 0.47565104 -3.55732904 0 0 0 Z " fill="#94AC04" transform="translate(440,107)"/>
<path d="M0 0 C0.99 0.33 1.98 0.66 3 1 C4.73277162 1.11553891 6.46943121 1.17645135 8.20581055 1.20532227 C9.26668381 1.22526749 10.32755707 1.24521271 11.420578 1.26576233 C13.13631767 1.29083107 13.13631767 1.29083107 14.88671875 1.31640625 C16.05886429 1.33718735 17.23100983 1.35796844 18.43867493 1.37937927 C22.18822286 1.44483818 25.93784163 1.50374296 29.6875 1.5625 C32.22722091 1.60568868 34.76693462 1.64930308 37.30664062 1.69335938 C43.53768522 1.80051586 49.76880051 1.9022892 56 2 C51.80818951 9.35452872 51.80818951 9.35452872 47.88137817 10.75628662 C45.38136642 11.02410368 42.9862481 11.05741864 40.47265625 10.9921875 C39.11194252 10.99655319 39.11194252 10.99655319 37.72373962 11.00100708 C35.81154493 10.9976977 33.89929463 10.97466866 31.98754883 10.93310547 C29.07336148 10.87521576 26.16646743 10.89187817 23.25195312 10.91796875 C21.38798574 10.90549029 19.5240412 10.88870543 17.66015625 10.8671875 C16.79640884 10.87305878 15.93266144 10.87893005 15.04273987 10.88497925 C9.46255708 10.71255047 6.41897127 9.44045325 2.28929138 5.67263794 C0.84228759 3.79539477 0.4053684 2.31614967 0 0 Z " fill="#FCB100" transform="translate(72,334)"/>
<path d="M0 0 C4.0743356 0.84881992 5.54405875 2.30225596 8 5.625 C8.625 8.625 8.625 8.625 8 11.625 C5.54405875 14.94774404 4.0743356 16.40118008 0 17.25 C-4.0743356 16.40118008 -5.54405875 14.94774404 -8 11.625 C-8.625 8.625 -8.625 8.625 -8 5.625 C-5.54405875 2.30225596 -4.0743356 0.84881992 0 0 Z " fill="#070900" transform="translate(328,231.375)"/>
<path d="M0 0 C4.0743356 0.84881992 5.54405875 2.30225596 8 5.625 C8.625 8.625 8.625 8.625 8 11.625 C5.54405875 14.94774404 4.0743356 16.40118008 0 17.25 C-4.0743356 16.40118008 -5.54405875 14.94774404 -8 11.625 C-8.625 8.625 -8.625 8.625 -8 5.625 C-5.54405875 2.30225596 -4.0743356 0.84881992 0 0 Z " fill="#070900" transform="translate(184,231.375)"/>
</svg>
